<svg xmlns="http://www.w3.org/2000/svg" xml:space="preserve" width="559.37" height="93.567"><defs><clipPath id="a" clipPathUnits="userSpaceOnUse"><path d="M0 566.929h566.929V0H0Z"/></clipPath></defs><g clip-path="url(#a)" transform="matrix(1.33333 0 0 -1.33333 -98.267 424.736)"><path d="M0 0a3.204 3.204 0 0 0-3.2 3.2c0 1.765 1.435 3.2 3.2 3.2 1.765 0 3.2-1.435 3.2-3.2C3.2 1.436 1.765 0 0 0m-4.061 43.392a3.178 3.178 0 0 0 2.375-.602 3.182 3.182 0 0 0 1.253-2.105 3.205 3.205 0 0 0-2.707-3.628 3.206 3.206 0 0 0-3.628 2.707 3.205 3.205 0 0 0 2.707 3.628m-18.154-23.568a3.205 3.205 0 0 0-3.201-3.201 3.204 3.204 0 0 0-3.2 3.201c0 1.764 1.435 3.2 3.2 3.2a3.204 3.204 0 0 0 3.201-3.2m65.379 5.973c-4.541 7.15-12.582 11.347-20.985 11.578-19.976.55-31.757-19.676-44.655-31.569-4.639-4.276-10.445-8.875-17.006-9.373-5.861-.445-12.281 2.528-15.331 7.681-4.85 8.198-.239 18.949 9.269 20.463 4.94.787 9.267-.997 13.187-3.619-.06-.37-.1-.748-.1-1.134a7.049 7.049 0 0 1 7.041-7.041 7.048 7.048 0 0 1 7.041 7.041c0 3.882-3.158 7.04-7.041 7.04a7 7 0 0 1-2.851-.608c-9.285 5.712-9.435 20.248.961 25.549 7.575 3.861 15.615.297 19.21-6.174-1.818-1.517-2.837-3.909-2.472-6.419.508-3.5 3.525-6.029 6.963-6.029.336 0 .675.025 1.017.074 3.842.558 6.513 4.138 5.955 7.98-.401 2.759-2.362 4.905-4.856 5.695-4.753 10.725-18.344 16.49-29.664 10.065-6.835-3.879-11.121-11.681-10.559-19.549a21.144 21.144 0 0 1 1.503-6.466c-7.607.805-15.367-1.955-19.729-8.551-4.999-7.559-3.986-17.743 1.772-24.547 4.155-4.909 10.967-7.869 17.389-7.894 16.585-.064 27.337 16.745 37.702 27.128 6.208 6.218 14.096 13.392 23.346 13.835 8.083.387 16.33-3.953 19.09-11.873 2.84-8.15-1.119-17.753-8.885-21.553-8.35-4.086-16.39-.023-23.506 4.729.042.31.071.623.071.944A7.049 7.049 0 0 1 0 10.241 7.049 7.049 0 0 1-7.041 3.2c0-3.882 3.159-7.041 7.041-7.041 1.214 0 2.357.309 3.355.853 6.272-4.212 12.938-7.867 20.788-7.47 8.568.433 16.256 5.436 19.994 13.203 3.538 7.351 3.459 16.073-.973 23.052" style="fill:#2b93dd;fill-opacity:1;fill-rule:nonzero;stroke:none" transform="translate(136.854 258.865)"/><path d="M0 0c-.589 0-1.066.477-1.066 1.066v18.48c0 1.961-.117 3.49-.348 4.586-.233 1.096-.586 1.839-1.06 2.23-.474.39-1.26.585-2.356.585-1.244 0-2.562-.464-3.954-1.391a20.183 20.183 0 0 1-3.606-3.103 1.085 1.085 0 0 1-.284-.734V1.066C-12.674.477-13.151 0-13.74 0h-6.028c-.588 0-1.065.477-1.065 1.066v18.48c0 2.151-.095 3.705-.285 4.665-.19.959-.528 1.655-1.012 2.088-.486.432-1.308.648-2.467.648-1.013 0-2.183-.385-3.511-1.155-1.243-.72-2.587-1.832-4.033-3.336-.191-.199-.3-.47-.3-.746V1.066c0-.589-.477-1.066-1.066-1.066h-6.028c-.589 0-1.067.477-1.067 1.066v31.046c0 .589.478 1.066 1.067 1.066h6.028c.589 0 1.066-.477 1.066-1.066v-.715c0-.918 1.079-1.397 1.771-.794a17.717 17.717 0 0 0 3.004 2.132c1.666.928 3.511 1.391 5.536 1.391 2.762 0 4.801-.474 6.119-1.423.948-.682 1.68-1.599 2.198-2.75.295-.658 1.155-.812 1.686-.325 1.459 1.338 2.842 2.373 4.15 3.107 1.655.928 3.589 1.391 5.804 1.391 3.226 0 5.576-.917 7.053-2.751 1.475-1.834 2.213-4.914 2.213-9.235V1.066C7.093.477 6.616 0 6.027 0Z" style="fill:#0a2435;fill-opacity:1;fill-rule:nonzero;stroke:none" transform="translate(244.215 253.02)"/><path d="M0 0a1.07 1.07 0 0 1 1.067 1.146c-.32 4.275-2.51 6.413-6.569 6.413-1.455 0-2.646-.248-3.574-.743-.927-.496-1.671-1.233-2.23-2.214-.438-.769-.801-1.879-1.09-3.329A1.069 1.069 0 0 1-11.349 0Zm-11.682-5.629a1.07 1.07 0 0 1-1.063-1.182c.263-2.343.948-4.068 2.056-5.175 1.286-1.287 3.311-1.93 6.073-1.93 1.602 0 3.01.2 4.222.601.955.315 1.815.86 2.58 1.633.368.371.949.426 1.374.123l4.4-3.14a1.075 1.075 0 0 0 .197-1.563 12.225 12.225 0 0 0-4.471-3.379c-2.119-.949-5.013-1.423-8.682-1.423-5.461 0-9.535 1.434-12.224 4.301-2.688 2.867-4.032 7.2-4.032 12.999 0 11.871 5.313 17.807 15.94 17.807 4.723 0 8.323-1.334 10.801-4.001C7.966 7.375 9.205 3.49 9.205-1.612v-2.951c0-.589-.477-1.066-1.066-1.066z" style="fill:#0a2435;fill-opacity:1;fill-rule:nonzero;stroke:none" transform="translate(279.804 273.104)"/><path d="M0 0a1.076 1.076 0 0 0 .212-1.558 12.127 12.127 0 0 0-4.311-3.343c-2.066-.97-4.68-1.455-7.842-1.455-5.357 0-9.405 1.46-12.146 4.38-2.741 2.921-4.111 7.248-4.111 12.984 0 5.587 1.328 9.941 3.985 13.062 2.656 3.121 6.641 4.681 11.955 4.681 2.847 0 5.382-.464 7.606-1.392 1.861-.776 3.35-1.906 4.465-3.391a1.071 1.071 0 0 0-.236-1.514l-4.426-3.159a1.065 1.065 0 0 0-1.397.147 6.688 6.688 0 0 1-1.995 1.481c-.991.475-2.267.712-3.827.712-2.784 0-4.765-.854-5.946-2.562-1.181-1.708-1.772-4.355-1.772-7.939 0-3.585.606-6.204 1.819-7.859 1.212-1.656 3.284-2.483 6.216-2.483 1.265 0 2.423.179 3.478.538.835.284 1.637.838 2.406 1.665.362.389.955.456 1.39.151z" style="fill:#0a2435;fill-opacity:1;fill-rule:nonzero;stroke:none" transform="translate(361.391 258.396)"/><path d="M0 0c0 3.647-.569 6.31-1.708 7.986C-2.847 9.663-4.755 10.5-7.432 10.5c-2.657 0-4.576-.859-5.756-2.577C-14.37 6.204-14.96 3.563-14.96 0c0-3.542.585-6.152 1.755-7.828 1.171-1.676 3.095-2.514 5.773-2.514 2.635 0 4.533.827 5.692 2.483C-.58-6.204 0-3.585 0 0m8.445 0c0-5.525-1.276-9.821-3.827-12.888-2.551-3.069-6.568-4.602-12.05-4.602-10.628 0-15.941 5.829-15.941 17.49 0 5.609 1.276 9.947 3.828 13.015 2.55 3.068 6.588 4.602 12.113 4.602 5.482 0 9.499-1.534 12.05-4.602C7.169 9.947 8.445 5.609 8.445 0" style="fill:#0a2435;fill-opacity:1;fill-rule:nonzero;stroke:none" transform="translate(407.423 269.53)"/><path d="M0 0v.779c0 .895-1.029 1.384-1.73.825a17.968 17.968 0 0 0-3.536-2.18c-2.076-.98-4.075-1.47-5.993-1.47-3.753 0-6.378 1.038-7.875 3.115-1.498 2.076-2.245 5.034-2.245 8.871v21.106c0 .589.477 1.066 1.066 1.066h6.027c.589 0 1.066-.477 1.066-1.066V13.831c0-2.341.137-4.133.411-5.376.274-1.245.723-2.104 1.345-2.579.621-.474 1.533-.711 2.735-.711 2.341 0 5.135 1.484 8.38 4.452.222.202.349.494.349.793v20.636c0 .589.478 1.066 1.066 1.066h6.029c.588 0 1.066-.477 1.066-1.066V0c0-.589-.478-1.066-1.066-1.066H1.066C.478-1.066 0-.589 0 0" style="fill:#0a2435;fill-opacity:1;fill-rule:nonzero;stroke:none" transform="translate(444.49 254.087)"/><path d="M0 0h6.478a.662.662 0 0 0 .662-.662v-36.154c.058-3.078 1.476-5.287 4.151-6.825a.656.656 0 0 0 .135-1.026l-4.065-4.171a.66.66 0 0 0-.678-.172C2.142-47.499-.662-42.607-.662-37.655V-.662C-.662-.296-.366 0 0 0" style="fill:#0a2435;fill-opacity:1;fill-rule:nonzero;stroke:none" transform="translate(369.001 298.83)"/><path d="M0 0c0-.312-.129-.615-.369-.815-.914-.768-1.988-1.424-3.22-1.971-1.403-.622-2.778-.933-4.127-.933-2.278 0-3.96.907-5.045 2.72-1.087 1.814-1.629 4.312-1.629 7.496 0 3.227.664 5.783 1.992 7.67 1.329 1.887 3.089 2.831 5.282 2.831 1.328 0 2.631-.3 3.907-.902 1.097-.516 2.042-1.1 2.835-1.75.243-.199.374-.503.374-.818Zm11.896-6.427C9.823-5.163 8.57-3.457 8.161-1.226v37.305c0 .588-.478 1.066-1.066 1.066H1.066A1.067 1.067 0 0 1 0 36.079V22.896c0-.844-.923-1.341-1.639-.894-.728.456-1.542.859-2.44 1.211-1.645.642-3.248.964-4.808.964-4.407 0-7.828-1.56-10.263-4.68-2.435-3.122-3.653-7.497-3.653-13.126 0-5.503 1.107-9.763 3.321-12.778 2.213-3.015 5.408-4.523 9.583-4.523 2.151 0 4.069.379 5.756 1.139a19.503 19.503 0 0 1 3.148 1.79c.701.487 2.13 1.56 3.307.219l.004.006c1.235-1.887 2.966-3.381 5.091-4.126a.883.883 0 0 1 .919.23l3.754 3.851a.898.898 0 0 1-.184 1.394" style="fill:#0a2435;fill-opacity:1;fill-rule:nonzero;stroke:none" transform="translate(317.505 262.984)"/><path d="M0 0c0-.312-.129-.615-.369-.815-.914-.768-1.988-1.424-3.22-1.971-1.403-.622-2.778-.933-4.127-.933-2.278 0-3.96.907-5.045 2.72-1.087 1.814-1.629 4.312-1.629 7.496 0 3.227.664 5.783 1.992 7.67 1.329 1.887 3.089 2.831 5.282 2.831 1.328 0 2.631-.3 3.907-.902 1.097-.516 2.042-1.1 2.835-1.75.243-.199.374-.503.374-.818Zm11.896-6.427C9.823-5.163 8.57-3.457 8.161-1.226v37.305c0 .588-.478 1.066-1.066 1.066H1.066A1.067 1.067 0 0 1 0 36.079V22.896c0-.845-.923-1.341-1.639-.894-.728.456-1.542.859-2.44 1.211-1.645.642-3.248.964-4.808.964-4.407 0-7.828-1.56-10.263-4.68-2.435-3.122-3.653-7.497-3.653-13.126 0-5.503 1.107-9.763 3.321-12.778 2.213-3.015 5.408-4.523 9.583-4.523 2.151 0 4.069.379 5.756 1.139a19.47 19.47 0 0 1 3.148 1.79c.701.487 2.13 1.56 3.306.219l.005.006c1.235-1.887 2.966-3.382 5.091-4.127a.883.883 0 0 1 .919.231l3.754 3.851a.898.898 0 0 1-.184 1.394" style="fill:#0a2435;fill-opacity:1;fill-rule:nonzero;stroke:none" transform="translate(480.896 263.048)"/></g></svg>